<svg width="385" height="250" viewBox="0 0 385 250" fill="none" xmlns="http://www.w3.org/2000/svg">
<mask id="mask0_6_1217" style="mask-type:alpha" maskUnits="userSpaceOnUse" x="0" y="0" width="385" height="250">
<rect width="385" height="250" rx="20" fill="#221463"/>
</mask>
<g mask="url(#mask0_6_1217)">
<g filter="url(#filter0_d_6_1217)">
<mask id="path-2-outside-1_6_1217" maskUnits="userSpaceOnUse" x="-181" y="-3" width="579" height="236" fill="black">
<rect fill="white" x="-181" y="-3" width="579" height="236"/>
<path d="M-35.8406 -1.78814e-05C56.9594 -0.400013 103.359 37.3 103.359 113.1C103.359 142.7 93.9594 169.5 75.1594 193.5C56.5594 217.3 19.5594 229.2 -35.8406 229.2C-74.8406 229.2 -105.041 222.7 -126.441 209.7C-147.841 196.7 -162.141 181.5 -169.341 164.1C-176.341 146.7 -179.541 129.7 -178.941 113.1C-178.941 84.3 -169.041 58.3 -149.241 35.1C-129.441 11.7 -91.6406 -1.78814e-05 -35.8406 -1.78814e-05ZM-35.5406 174.9C-18.1406 174.9 -4.04061 172 6.75938 166.2C17.7594 160.2 25.5594 152.6 30.1594 143.4C34.7594 134 36.8594 123.8 36.4594 112.8C36.8594 102.4 34.7594 92.8 30.1594 84C25.5594 75.2 17.7594 68 6.75938 62.4C-4.04061 56.8 -18.1406 54 -35.5406 54C-52.7406 54 -66.7406 56.8 -77.5406 62.4C-88.3406 68 -96.0406 75.2 -100.641 84C-105.241 92.8 -107.341 102.4 -106.941 112.8C-107.341 123.8 -105.241 134 -100.641 143.4C-96.0406 152.6 -88.3406 160.2 -77.5406 166.2C-66.7406 172 -52.7406 174.9 -35.5406 174.9Z"/>
<path d="M396.914 151.5C396.914 169.5 390.914 184.5 378.914 196.5C367.114 208.5 351.114 217.4 330.914 223.2C310.914 228.8 288.314 231.6 263.114 231.6C218.314 231.6 183.714 224.2 159.314 209.4C134.914 194.4 120.514 170.7 116.114 138.3C115.914 135.1 115.814 130.5 115.814 124.5C115.814 76.5 130.214 43.5 159.014 25.5C187.814 7.29999 222.514 -1.80001 263.114 -1.80001C302.314 -1.80001 333.414 4.39999 356.414 16.8C379.414 29 390.914 48.5 390.914 75.3H324.014C324.014 64.7 318.114 57.1 306.314 52.5C294.714 47.7 280.414 45.6 263.414 46.2C244.414 46 227.714 50.1 213.314 58.5C198.914 66.9 190.314 80.3 187.514 98.7C200.514 91.1 215.814 86.3 233.414 84.3C251.014 82.1 270.314 81 291.314 81C312.314 81 330.714 83.8 346.514 89.4C362.314 94.8 374.614 102.8 383.414 113.4C392.414 123.8 396.914 136.3 396.914 150.9V151.2V151.5ZM263.414 182.1C281.214 182.3 296.314 180 308.714 175.2C321.114 170.2 327.314 162.2 327.314 151.2C327.314 137.8 321.214 128.8 309.014 124.2C297.014 119.6 279.214 117.3 255.614 117.3C211.614 117.3 189.914 125.9 190.514 143.1H190.214C190.214 155.1 194.714 164 203.714 169.8C212.914 175.4 222.214 178.8 231.614 180C241.214 181.2 251.814 181.9 263.414 182.1Z"/>
</mask>
<path d="M-35.8406 -1.78814e-05C56.9594 -0.400013 103.359 37.3 103.359 113.1C103.359 142.7 93.9594 169.5 75.1594 193.5C56.5594 217.3 19.5594 229.2 -35.8406 229.2C-74.8406 229.2 -105.041 222.7 -126.441 209.7C-147.841 196.7 -162.141 181.5 -169.341 164.1C-176.341 146.7 -179.541 129.7 -178.941 113.1C-178.941 84.3 -169.041 58.3 -149.241 35.1C-129.441 11.7 -91.6406 -1.78814e-05 -35.8406 -1.78814e-05ZM-35.5406 174.9C-18.1406 174.9 -4.04061 172 6.75938 166.2C17.7594 160.2 25.5594 152.6 30.1594 143.4C34.7594 134 36.8594 123.8 36.4594 112.8C36.8594 102.4 34.7594 92.8 30.1594 84C25.5594 75.2 17.7594 68 6.75938 62.4C-4.04061 56.8 -18.1406 54 -35.5406 54C-52.7406 54 -66.7406 56.8 -77.5406 62.4C-88.3406 68 -96.0406 75.2 -100.641 84C-105.241 92.8 -107.341 102.4 -106.941 112.8C-107.341 123.8 -105.241 134 -100.641 143.4C-96.0406 152.6 -88.3406 160.2 -77.5406 166.2C-66.7406 172 -52.7406 174.9 -35.5406 174.9Z" fill="#2F1C90" shape-rendering="crispEdges"/>
<path d="M-35.8406 -1.90735e-05V0.999992L-35.8363 0.999973L-35.8406 -1.90735e-05ZM75.1594 193.5L74.3722 192.883L74.3715 192.884L75.1594 193.5ZM-126.441 209.7L-126.96 210.555L-126.441 209.7ZM-169.341 164.1L-170.268 164.473L-170.265 164.482L-169.341 164.1ZM-178.941 113.1L-177.941 113.136L-177.941 113.118V113.1H-178.941ZM-149.241 35.1L-148.48 35.7492L-148.477 35.7459L-149.241 35.1ZM6.75938 166.2L7.23251 167.081L7.23824 167.078L6.75938 166.2ZM30.1594 143.4L31.0538 143.847L31.0576 143.84L30.1594 143.4ZM36.4594 112.8L35.4601 112.762L35.4587 112.799L35.4601 112.836L36.4594 112.8ZM30.1594 84L31.0456 83.5367L30.1594 84ZM6.75938 62.4L6.29904 63.2878L6.30569 63.2911L6.75938 62.4ZM-77.5406 62.4L-78.0009 61.5122L-77.5406 62.4ZM-100.641 84L-101.527 83.5367L-100.641 84ZM-106.941 112.8L-105.941 112.836L-105.94 112.799L-105.941 112.762L-106.941 112.8ZM-100.641 143.4L-101.539 143.84L-101.535 143.847L-100.641 143.4ZM-77.5406 166.2L-78.0263 167.074L-78.02 167.078L-78.0137 167.081L-77.5406 166.2ZM-35.8363 0.999973C10.4535 0.800449 44.9838 10.1083 67.9288 28.7511C90.8346 47.362 102.359 75.4133 102.359 113.1H104.359C104.359 74.9866 92.6842 46.2879 69.19 27.1989C45.735 8.14169 10.6652 -1.20048 -35.8449 -1.00001L-35.8363 0.999973ZM102.359 113.1C102.359 142.469 93.0388 169.054 74.3722 192.883L75.9466 194.117C94.88 169.946 104.359 142.931 104.359 113.1H102.359ZM74.3715 192.884C56.0718 216.3 19.4932 228.2 -35.8406 228.2V230.2C19.6256 230.2 57.047 218.3 75.9473 194.116L74.3715 192.884ZM-35.8406 228.2C-74.751 228.2 -104.742 221.711 -125.921 208.845L-126.96 210.555C-105.339 223.689 -74.9302 230.2 -35.8406 230.2V228.2ZM-125.921 208.845C-147.199 195.92 -161.321 180.865 -168.417 163.718L-170.265 164.482C-162.96 182.135 -148.482 197.48 -126.96 210.555L-125.921 208.845ZM-168.413 163.727C-175.367 146.44 -178.536 129.579 -177.941 113.136L-179.94 113.064C-180.546 129.821 -177.314 146.96 -170.268 164.473L-168.413 163.727ZM-177.941 113.1C-177.941 84.5528 -168.135 58.7797 -148.48 35.7492L-150.001 34.4508C-169.946 57.8203 -179.941 84.0472 -179.941 113.1H-177.941ZM-148.477 35.7459C-128.976 12.6988 -91.5714 0.999981 -35.8406 0.999981V-1.00002C-91.7098 -1.00002 -129.905 10.7012 -150.004 34.4541L-148.477 35.7459ZM-35.5406 175.9C-18.0406 175.9 -3.76114 172.985 7.2325 167.081L6.28625 165.319C-4.32008 171.015 -18.2406 173.9 -35.5406 173.9V175.9ZM7.23824 167.078C18.3778 161.002 26.3442 153.266 31.0538 143.847L29.265 142.953C24.7746 151.934 17.141 159.398 6.28053 165.322L7.23824 167.078ZM31.0576 143.84C35.7337 134.284 37.8644 123.919 37.4587 112.764L35.4601 112.836C35.8544 123.681 33.785 133.716 29.2612 142.96L31.0576 143.84ZM37.4586 112.838C37.865 102.273 35.7303 92.4988 31.0456 83.5367L29.2732 84.4632C33.7884 93.1012 35.8538 102.527 35.4601 112.762L37.4586 112.838ZM31.0456 83.5367C26.3282 74.5121 18.3527 67.1799 7.21306 61.5088L6.30569 63.2911C17.166 68.8201 24.7906 75.8879 29.2732 84.4632L31.0456 83.5367ZM7.2197 61.5122C-3.77043 55.8136 -18.0448 53 -35.5406 53V55C-18.2364 55 -4.31081 57.7863 6.29906 63.2877L7.2197 61.5122ZM-35.5406 53C-52.8386 53 -67.0122 55.8144 -78.0009 61.5122L-77.0803 63.2877C-66.4691 57.7856 -52.6426 55 -35.5406 55V53ZM-78.0009 61.5122C-88.9415 67.1851 -96.8122 74.5174 -101.527 83.5367L-99.7544 84.4632C-95.2691 75.8826 -87.7397 68.8148 -77.0803 63.2877L-78.0009 61.5122ZM-101.527 83.5367C-106.212 92.4988 -108.346 102.273 -107.94 112.838L-105.941 112.762C-106.335 102.527 -104.27 93.1012 -99.7544 84.4632L-101.527 83.5367ZM-107.94 112.764C-108.346 123.919 -106.215 134.284 -101.539 143.84L-99.7424 142.96C-104.266 133.716 -106.336 123.681 -105.941 112.836L-107.94 112.764ZM-101.535 143.847C-96.8281 153.261 -88.9664 160.996 -78.0263 167.074L-77.055 165.326C-87.7149 159.404 -95.2532 151.939 -99.7462 142.953L-101.535 143.847ZM-78.0137 167.081C-67.0215 172.984 -52.8429 175.9 -35.5406 175.9V173.9C-52.6383 173.9 -66.4597 171.016 -77.0675 165.319L-78.0137 167.081ZM378.914 196.5L378.207 195.793L378.201 195.799L378.914 196.5ZM330.914 223.2L331.184 224.163L331.19 224.161L330.914 223.2ZM159.314 209.4L158.79 210.252L158.795 210.255L159.314 209.4ZM116.114 138.3L115.116 138.362L115.118 138.399L115.123 138.435L116.114 138.3ZM159.014 25.5L159.544 26.348L159.548 26.3453L159.014 25.5ZM356.414 16.8L355.94 17.6802L355.945 17.6834L356.414 16.8ZM390.914 75.3V76.3H391.914V75.3H390.914ZM324.014 75.3H323.014V76.3H324.014V75.3ZM306.314 52.5L305.932 53.424L305.941 53.4279L305.951 53.4317L306.314 52.5ZM263.414 46.2L263.404 47.1999L263.426 47.2002L263.449 47.1994L263.414 46.2ZM187.514 98.7L186.525 98.5495L186.21 100.621L188.019 99.5633L187.514 98.7ZM233.414 84.3L233.527 85.2937L233.538 85.2923L233.414 84.3ZM346.514 89.4L346.18 90.3426L346.191 90.3463L346.514 89.4ZM383.414 113.4L382.645 114.039L382.651 114.047L382.658 114.054L383.414 113.4ZM263.414 182.1L263.397 183.1L263.403 183.1L263.414 182.1ZM308.714 175.2L309.075 176.133L309.088 176.127L308.714 175.2ZM309.014 124.2L308.656 125.134L308.661 125.136L309.014 124.2ZM190.514 143.1V144.1H191.55L191.513 143.065L190.514 143.1ZM190.214 143.1V142.1H189.214V143.1H190.214ZM203.714 169.8L203.172 170.641L203.183 170.648L203.194 170.654L203.714 169.8ZM231.614 180L231.487 180.992L231.49 180.992L231.614 180ZM395.914 151.5C395.914 169.253 390.007 183.993 378.207 195.793L379.621 197.207C391.821 185.007 397.914 169.747 397.914 151.5H395.914ZM378.201 195.799C366.548 207.649 350.713 216.475 330.638 222.239L331.19 224.161C351.515 218.325 367.68 209.351 379.627 197.201L378.201 195.799ZM330.644 222.237C310.749 227.808 288.242 230.6 263.114 230.6V232.6C288.387 232.6 311.08 229.792 331.184 224.163L330.644 222.237ZM263.114 230.6C218.402 230.6 184.011 223.211 159.833 208.545L158.795 210.255C183.417 225.189 218.226 232.6 263.114 232.6V230.6ZM159.838 208.548C135.731 193.728 121.471 170.316 117.105 138.165L115.123 138.435C119.557 171.084 134.097 195.072 158.79 210.252L159.838 208.548ZM117.112 138.238C116.914 135.069 116.814 130.494 116.814 124.5H114.814C114.814 130.506 114.914 135.131 115.116 138.362L117.112 138.238ZM116.814 124.5C116.814 76.6884 131.148 44.0954 159.544 26.348L158.484 24.652C129.28 42.9046 114.814 76.3116 114.814 124.5H116.814ZM159.548 26.3453C188.16 8.26431 222.667 -0.800011 263.114 -0.800011V-2.80001C222.362 -2.80001 187.468 6.33566 158.48 24.6546L159.548 26.3453ZM263.114 -0.800011C302.225 -0.800011 333.14 5.38845 355.94 17.6802L356.889 15.9198C333.688 3.41153 302.403 -2.80001 263.114 -2.80001V-0.800011ZM355.945 17.6834C367.307 23.7102 375.785 31.5147 381.428 41.083C387.072 50.6529 389.914 62.0456 389.914 75.3H391.914C391.914 61.7544 389.007 49.9971 383.15 40.067C377.293 30.1353 368.521 22.0898 356.883 15.9166L355.945 17.6834ZM390.914 74.3H324.014V76.3H390.914V74.3ZM325.014 75.3C325.014 69.8019 323.479 65.0302 320.379 61.0368C317.288 57.0556 312.694 53.9137 306.677 51.5683L305.951 53.4317C311.734 55.6863 315.99 58.6444 318.799 62.2632C321.599 65.8698 323.014 70.1981 323.014 75.3H325.014ZM306.696 51.576C294.926 46.7055 280.474 44.5973 263.379 45.2006L263.449 47.1994C280.354 46.6027 294.502 48.6945 305.932 53.424L306.696 51.576ZM263.425 45.2001C244.27 44.9984 227.387 49.1331 212.81 57.6362L213.818 59.3638C228.041 51.0669 244.558 47.0016 263.404 47.1999L263.425 45.2001ZM212.81 57.6362C198.116 66.2076 189.365 79.8902 186.525 98.5495L188.503 98.8504C191.263 80.7098 199.712 67.5924 213.818 59.3638L212.81 57.6362ZM188.019 99.5633C200.879 92.0448 216.041 87.2806 233.527 85.2936L233.301 83.3064C215.587 85.3194 200.149 90.1552 187.009 97.8367L188.019 99.5633ZM233.538 85.2923C251.09 83.0983 270.348 82 291.314 82V80C270.28 80 250.938 81.1017 233.29 83.3077L233.538 85.2923ZM291.314 82C312.228 82 330.51 84.7888 346.18 90.3425L346.848 88.4574C330.918 82.8112 312.4 80 291.314 80V82ZM346.191 90.3463C361.854 95.6994 373.985 103.608 382.645 114.039L384.183 112.761C375.243 101.992 362.775 93.9006 346.837 88.4537L346.191 90.3463ZM382.658 114.054C391.49 124.261 395.914 136.524 395.914 150.9H397.914C397.914 136.076 393.338 123.339 384.17 112.746L382.658 114.054ZM395.914 150.9V151.2H397.914V150.9H395.914ZM395.914 151.2V151.5H397.914V151.2H395.914ZM263.403 183.1C281.289 183.301 296.524 180.991 309.075 176.133L308.353 174.267C296.104 179.009 281.139 181.299 263.425 181.1L263.403 183.1ZM309.088 176.127C315.401 173.582 320.217 170.241 323.454 166.063C326.702 161.872 328.314 156.901 328.314 151.2H326.314C326.314 156.499 324.826 161.028 321.874 164.837C318.912 168.659 314.427 171.818 308.34 174.273L309.088 176.127ZM328.314 151.2C328.314 144.347 326.753 138.539 323.567 133.839C320.379 129.136 315.621 125.622 309.367 123.264L308.661 125.136C314.607 127.378 318.999 130.664 321.911 134.961C324.825 139.26 326.314 144.653 326.314 151.2H328.314ZM309.372 123.266C297.199 118.6 279.252 116.3 255.614 116.3V118.3C279.177 118.3 296.829 120.6 308.656 125.134L309.372 123.266ZM255.614 116.3C233.579 116.3 217 118.449 205.971 122.82C200.447 125.009 196.251 127.78 193.471 131.179C190.675 134.599 189.357 138.601 189.515 143.135L191.513 143.065C191.372 138.999 192.541 135.476 195.019 132.446C197.515 129.395 201.381 126.791 206.707 124.68C217.378 120.451 233.649 118.3 255.614 118.3V116.3ZM190.514 142.1H190.214V144.1H190.514V142.1ZM189.214 143.1C189.214 155.391 193.848 164.632 203.172 170.641L204.256 168.959C195.58 163.368 191.214 154.809 191.214 143.1H189.214ZM203.194 170.654C212.498 176.317 221.93 179.772 231.487 180.992L231.741 179.008C222.498 177.828 213.33 174.483 204.234 168.946L203.194 170.654ZM231.49 180.992C241.132 182.197 251.768 182.899 263.397 183.1L263.431 181.1C251.86 180.901 241.297 180.203 231.738 179.008L231.49 180.992Z" fill="#2F1C90" mask="url(#path-2-outside-1_6_1217)"/>
</g>
</g>
<defs>
<filter id="filter0_d_6_1217" x="-185.841" y="-7.80005" width="596.755" height="253.4" filterUnits="userSpaceOnUse" color-interpolation-filters="sRGB">
<feFlood flood-opacity="0" result="BackgroundImageFix"/>
<feColorMatrix in="SourceAlpha" type="matrix" values="0 0 0 0 0 0 0 0 0 0 0 0 0 0 0 0 0 0 127 0" result="hardAlpha"/>
<feOffset dx="4" dy="4"/>
<feGaussianBlur stdDeviation="5"/>
<feComposite in2="hardAlpha" operator="out"/>
<feColorMatrix type="matrix" values="0 0 0 0 0 0 0 0 0 0 0 0 0 0 0 0 0 0 0.25 0"/>
<feBlend mode="normal" in2="BackgroundImageFix" result="effect1_dropShadow_6_1217"/>
<feBlend mode="normal" in="SourceGraphic" in2="effect1_dropShadow_6_1217" result="shape"/>
</filter>
</defs>
</svg>
