<svg width="280" height="250" viewBox="0 0 280 250" fill="none" xmlns="http://www.w3.org/2000/svg">
<mask id="mask0_6_1171" style="mask-type:alpha" maskUnits="userSpaceOnUse" x="0" y="0" width="280" height="250">
<rect width="280" height="250" rx="20" fill="#221463"/>
</mask>
<g mask="url(#mask0_6_1171)">
<rect x="-329.877" y="106.758" width="834.877" height="362.24" transform="rotate(-20.3982 -329.877 106.758)" fill="#221463"/>
<path d="M-298.638 126.427C-286 113.395 -250.039 88.3566 -207.289 92.4582C-164.54 96.5598 -130.734 72.3228 -119.175 59.6916C-106.895 47.3481 -72.2416 23.574 -31.8681 27.2257C8.50543 30.8775 50.1646 4.49805 65.9475 -9.14813C77.5487 -20.0172 110.767 -41.5467 150.829 -40.7122C190.891 -39.8777 230.576 -63.8121 245.411 -75.8836C256.722 -87.5335 289.533 -110.156 330.292 -107.448C371.051 -104.739 409.791 -129.566 424.066 -142.319" stroke="#2F1C90" stroke-opacity="0.7"/>
<path d="M-291.123 146.637C-278.258 134.215 -241.979 110.03 -199.774 112.668C-157.569 115.305 -123.446 91.9222 -111.659 79.9011C-99.1678 68.1269 -64.2183 45.1499 -24.3529 47.4352C15.5125 49.7204 57.4681 24.1381 73.4627 11.0613C85.2424 0.672126 118.71 -20.1855 158.344 -20.5028C197.978 -20.82 237.913 -44.0826 252.926 -55.6742C264.439 -66.7792 297.535 -88.6389 337.807 -87.2383C378.08 -85.8377 417.103 -109.902 431.581 -122.109" stroke="#2F1C90" stroke-opacity="0.7"/>
<path d="M-283.607 166.847C-270.969 153.815 -235.008 128.776 -192.258 132.878C-149.509 136.979 -115.703 112.742 -104.144 100.111C-91.8637 87.7675 -57.2106 63.9934 -16.8371 67.6452C23.5364 71.2969 65.1956 44.9175 80.9785 31.2713C92.5797 20.4022 125.798 -1.12727 165.86 -0.292789C205.922 0.541691 245.607 -23.3927 260.442 -35.4642C271.753 -47.1141 304.564 -69.7368 345.323 -67.0283C386.082 -64.3198 424.822 -89.147 439.097 -101.899" stroke="#2F1C90" stroke-opacity="0.7"/>
<path d="M-275.791 187.865C-263.154 174.833 -227.192 149.794 -184.443 153.896C-141.693 157.997 -107.887 133.76 -96.3279 121.129C-84.048 108.786 -49.3949 85.0115 -9.0214 88.6632C31.3521 92.315 73.0113 65.9355 88.7942 52.2894C100.395 41.4203 133.613 19.8908 173.675 20.7253C213.737 21.5598 253.423 -2.37463 268.257 -14.4461C279.568 -26.096 312.38 -48.7187 353.139 -46.0102C393.898 -43.3017 432.637 -68.1289 446.912 -80.881" stroke="#2F1C90" stroke-opacity="0.7" stroke-width="15"/>
<path d="M-268.276 208.075C-255.412 195.653 -219.132 171.469 -176.928 174.106C-134.723 176.744 -100.599 153.361 -88.8127 141.34C-76.3211 129.565 -41.3716 106.588 -1.50622 108.874C38.3592 111.159 80.3147 85.5766 96.3093 72.4998C108.089 62.1106 141.557 41.2529 181.191 40.9357C220.824 40.6184 260.759 17.3559 275.773 5.76427C287.286 -5.34068 320.381 -27.2004 360.654 -25.7998C400.926 -24.3992 439.95 -48.4634 454.427 -60.6706" stroke="#2F1C90" stroke-opacity="0.7"/>
<path d="M-260.76 228.285C-248.123 215.253 -212.161 190.214 -169.412 194.316C-126.662 198.417 -92.8563 174.18 -81.2968 161.549C-69.017 149.206 -34.3639 125.432 6.0096 129.083C46.3831 132.735 88.0423 106.356 103.825 92.7094C115.426 81.8403 148.644 60.3108 188.706 61.1453C228.768 61.9798 268.454 38.0454 283.288 25.9739C294.599 14.324 327.411 -8.29869 368.17 -5.59019C408.929 -2.88169 447.668 -27.7088 461.943 -40.461" stroke="#2F1C90" stroke-opacity="0.7" stroke-width="15"/>
<path d="M-252.944 249.303C-240.307 236.271 -204.345 211.232 -161.596 215.334C-118.847 219.436 -85.0405 195.199 -73.4811 182.567C-61.2012 170.224 -26.5481 146.45 13.8254 150.101C54.1989 153.753 95.8581 127.374 111.641 113.728C123.242 102.859 156.46 81.329 196.522 82.1635C236.584 82.998 276.269 59.0636 291.104 46.9921C302.415 35.3422 335.227 12.7195 375.985 15.428C416.744 18.1365 455.484 -6.69066 469.759 -19.4428" stroke="#2F1C90" stroke-opacity="0.7"/>
<path d="M-245.73 268.704C-233.093 255.672 -197.131 230.634 -154.382 234.735C-111.633 238.837 -77.8265 214.6 -66.2671 201.969C-53.9872 189.625 -19.3341 165.851 21.0394 169.503C61.4129 173.155 103.072 146.775 118.855 133.129C130.456 122.26 163.674 100.731 203.736 101.565C243.798 102.399 283.483 78.4651 298.318 66.3936C309.629 54.7437 342.441 32.121 383.199 34.8295C423.958 37.538 462.698 12.7108 476.973 -0.0413135" stroke="#2F1C90" stroke-opacity="0.7" stroke-width="15"/>
<path d="M-237.915 289.722C-225.277 276.69 -189.315 251.652 -146.566 255.753C-103.817 259.855 -70.0107 235.618 -58.4513 222.987C-46.1714 210.643 -11.5183 186.869 28.8552 190.521C69.2287 194.173 110.888 167.793 126.671 154.147C138.272 143.278 171.49 121.748 211.552 122.583C251.614 123.417 291.299 99.483 306.134 87.4115C317.445 75.7616 350.256 53.1389 391.015 55.8474C431.774 58.5559 470.514 33.7288 484.789 20.9766" stroke="#2F1C90" stroke-opacity="0.7"/>
<path d="M-230.399 309.932C-217.535 297.51 -181.256 273.326 -139.051 275.963C-96.8461 278.601 -62.7224 255.218 -50.9361 243.197C-38.4445 231.422 -3.49501 208.445 36.3704 210.731C76.2357 213.016 118.191 187.434 134.186 174.357C145.966 163.968 179.433 143.11 219.067 142.793C258.701 142.475 298.636 119.213 313.649 107.621C325.163 96.5164 358.258 74.6566 398.53 76.0572C438.803 77.4578 477.826 53.3936 492.304 41.1864" stroke="#2F1C90" stroke-opacity="0.7" stroke-width="15"/>
<path d="M-222.884 330.142C-210.246 317.11 -174.284 292.072 -131.535 296.173C-88.786 300.275 -54.9798 276.038 -43.4204 263.407C-31.1405 251.063 3.51255 227.289 43.8861 230.941C84.2596 234.593 125.919 208.213 141.702 194.567C153.303 183.698 186.521 162.168 226.583 163.003C266.645 163.837 306.33 139.903 321.165 127.831C332.476 116.182 365.287 93.5589 406.046 96.2674C446.805 98.9759 485.545 74.1487 499.82 61.3966" stroke="#2F1C90" stroke-opacity="0.7"/>
<path d="M-215.068 351.16C-202.431 338.128 -166.469 313.09 -123.719 317.191C-80.9702 321.293 -47.164 297.056 -35.6046 284.425C-23.3247 272.081 11.3283 248.307 51.7019 251.959C92.0754 255.611 133.735 229.231 149.517 215.585C161.119 204.716 194.337 183.187 234.399 184.021C274.461 184.856 314.146 160.921 328.981 148.85C340.292 137.2 373.103 114.577 413.862 117.286C454.621 119.994 493.361 95.1669 507.636 82.4147" stroke="#2F1C90" stroke-opacity="0.7"/>
<path d="M-207.553 371.37C-194.689 358.948 -158.409 334.764 -116.204 337.401C-73.9995 340.039 -39.8757 316.656 -28.0894 304.635C-15.5978 292.86 19.3517 269.883 59.217 272.169C99.0824 274.454 141.038 248.872 157.033 235.795C168.812 225.406 202.28 204.548 241.914 204.231C281.548 203.914 321.483 180.651 336.496 169.059C348.009 157.954 381.105 136.095 421.377 137.495C461.65 138.896 500.673 114.832 515.151 102.624" stroke="#2F1C90" stroke-opacity="0.7"/>
<path d="M-200.037 391.58C-187.4 378.548 -151.438 353.51 -108.688 357.611C-65.9392 361.713 -32.133 337.476 -20.5736 324.845C-8.29373 312.501 26.3594 288.727 66.7329 292.379C107.106 296.03 148.766 269.651 164.548 256.005C176.15 245.136 209.368 223.606 249.43 224.441C289.492 225.275 329.177 201.341 344.012 189.269C355.323 177.619 388.134 154.997 428.893 157.705C469.652 160.414 508.392 135.587 522.667 122.834" stroke="#2F1C90" stroke-opacity="0.7"/>
</g>
</svg>
