<svg width="380" height="250" viewBox="0 0 380 250" fill="none" xmlns="http://www.w3.org/2000/svg">
<mask id="mask0_6_1194" style="mask-type:alpha" maskUnits="userSpaceOnUse" x="0" y="0" width="380" height="250">
<rect width="380" height="250" rx="20" fill="#221463"/>
</mask>
<g mask="url(#mask0_6_1194)">
<g filter="url(#filter0_d_6_1194)">
<mask id="path-2-outside-1_6_1194" maskUnits="userSpaceOnUse" x="-135" y="15" width="566" height="235" fill="black">
<rect fill="white" x="-135" y="15" width="566" height="235"/>
<path d="M10.0441 17C102.844 16.6 149.244 54.3 149.244 130.1C149.244 159.7 139.844 186.5 121.044 210.5C102.444 234.3 65.4442 246.2 10.0441 246.2C-28.9559 246.2 -59.1559 239.7 -80.5559 226.7C-101.956 213.7 -116.256 198.5 -123.456 181.1C-130.456 163.7 -133.656 146.7 -133.056 130.1C-133.056 101.3 -123.156 75.3 -103.356 52.1C-83.5559 28.7 -45.7559 17 10.0441 17ZM10.3441 191.9C27.7442 191.9 41.8442 189 52.6441 183.2C63.6441 177.2 71.4441 169.6 76.0441 160.4C80.6441 151 82.7441 140.8 82.3442 129.8C82.7441 119.4 80.6441 109.8 76.0441 101C71.4441 92.2 63.6441 85 52.6441 79.4C41.8442 73.8 27.7442 71 10.3441 71C-6.85586 71 -20.8559 73.8 -31.6559 79.4C-42.4559 85 -50.1559 92.2 -54.7559 101C-59.3559 109.8 -61.4559 119.4 -61.0559 129.8C-61.4559 140.8 -59.3559 151 -54.7559 160.4C-50.1559 169.6 -42.4559 177.2 -31.6559 183.2C-20.8559 189 -6.85586 191.9 10.3441 191.9Z"/>
<path d="M429.599 164.3L352.799 162.8L429.599 164.3ZM429.599 164.6C428.999 186.4 421.099 203.6 405.899 216.2C390.699 228.6 372.899 237.1 352.499 241.7C332.299 246.1 312.399 248.3 292.799 248.3C274.799 248.3 256.199 245.8 236.999 240.8C217.799 235.8 201.299 227.3 187.499 215.3C173.899 203.3 167.099 187.6 167.099 168.2H236.699C236.699 178.4 242.099 186.1 252.899 191.3C263.699 196.3 276.799 199.1 292.199 199.7C308.999 200.5 323.299 198 335.099 192.2C346.899 186.4 352.799 176.7 352.799 163.1C352.799 149.5 347.999 139.2 338.399 132.2C328.799 125.2 313.399 121.7 292.199 121.7C276.199 121.7 262.799 124.5 251.999 130.1C241.399 135.5 236.099 143.2 236.099 153.2V153.8L167.999 154.1V20H419.099V65H236.099V104.6C247.099 97.4 260.299 92.3 275.699 89.3C291.299 86.3 307.699 84.8 324.899 84.8C345.299 84.8 363.399 88 379.199 94.4C394.999 100.6 407.299 109.7 416.099 121.7C425.099 133.7 429.599 147.9 429.599 164.3V164.6Z"/>
</mask>
<path d="M10.0441 17C102.844 16.6 149.244 54.3 149.244 130.1C149.244 159.7 139.844 186.5 121.044 210.5C102.444 234.3 65.4442 246.2 10.0441 246.2C-28.9559 246.2 -59.1559 239.7 -80.5559 226.7C-101.956 213.7 -116.256 198.5 -123.456 181.1C-130.456 163.7 -133.656 146.7 -133.056 130.1C-133.056 101.3 -123.156 75.3 -103.356 52.1C-83.5559 28.7 -45.7559 17 10.0441 17ZM10.3441 191.9C27.7442 191.9 41.8442 189 52.6441 183.2C63.6441 177.2 71.4441 169.6 76.0441 160.4C80.6441 151 82.7441 140.8 82.3442 129.8C82.7441 119.4 80.6441 109.8 76.0441 101C71.4441 92.2 63.6441 85 52.6441 79.4C41.8442 73.8 27.7442 71 10.3441 71C-6.85586 71 -20.8559 73.8 -31.6559 79.4C-42.4559 85 -50.1559 92.2 -54.7559 101C-59.3559 109.8 -61.4559 119.4 -61.0559 129.8C-61.4559 140.8 -59.3559 151 -54.7559 160.4C-50.1559 169.6 -42.4559 177.2 -31.6559 183.2C-20.8559 189 -6.85586 191.9 10.3441 191.9Z" fill="#2F1C90" shape-rendering="crispEdges"/>
<path d="M10.0441 17V18L10.0485 18L10.0441 17ZM121.044 210.5L120.257 209.883L120.256 209.884L121.044 210.5ZM-80.5559 226.7L-81.075 227.555L-80.5559 226.7ZM-123.456 181.1L-124.384 181.473L-124.38 181.482L-123.456 181.1ZM-133.056 130.1L-132.057 130.136L-132.056 130.118V130.1H-133.056ZM-103.356 52.1L-102.595 52.7492L-102.592 52.7459L-103.356 52.1ZM52.6441 183.2L53.1173 184.081L53.123 184.078L52.6441 183.2ZM76.0441 160.4L76.9386 160.847L76.9424 160.84L76.0441 160.4ZM82.3442 129.8L81.3449 129.762L81.3435 129.799L81.3448 129.836L82.3442 129.8ZM76.0441 101L76.9304 100.537L76.0441 101ZM52.6441 79.4L52.1838 80.2878L52.1905 80.2911L52.6441 79.4ZM-31.6559 79.4L-32.1162 78.5122L-31.6559 79.4ZM-54.7559 101L-55.6421 100.537L-54.7559 101ZM-61.0559 129.8L-60.0565 129.836L-60.0552 129.799L-60.0566 129.762L-61.0559 129.8ZM-54.7559 160.4L-55.6541 160.84L-55.6503 160.847L-54.7559 160.4ZM-31.6559 183.2L-32.1415 184.074L-32.1353 184.078L-32.129 184.081L-31.6559 183.2ZM10.0485 18C56.3383 17.8004 90.8685 27.1083 113.814 45.7511C136.719 64.362 148.244 92.4133 148.244 130.1H150.244C150.244 91.9866 138.569 63.2879 115.075 44.1989C91.6198 25.1417 56.55 15.7995 10.0398 16L10.0485 18ZM148.244 130.1C148.244 159.469 138.924 186.054 120.257 209.883L121.831 211.117C140.765 186.946 150.244 159.931 150.244 130.1H148.244ZM120.256 209.884C101.957 233.3 65.378 245.2 10.0441 245.2V247.2C65.5103 247.2 102.932 235.3 121.832 211.116L120.256 209.884ZM10.0441 245.2C-28.8663 245.2 -58.8574 238.711 -80.0367 225.845L-81.075 227.555C-59.4543 240.689 -29.0454 247.2 10.0441 247.2V245.2ZM-80.0367 225.845C-101.314 212.92 -115.436 197.865 -122.532 180.718L-124.38 181.482C-117.076 199.135 -102.597 214.48 -81.075 227.555L-80.0367 225.845ZM-122.528 180.727C-129.483 163.44 -132.651 146.579 -132.057 130.136L-134.055 130.064C-134.661 146.821 -131.429 163.96 -124.384 181.473L-122.528 180.727ZM-132.056 130.1C-132.056 101.553 -122.251 75.7797 -102.595 52.7492L-104.117 51.4508C-124.061 74.8203 -134.056 101.047 -134.056 130.1H-132.056ZM-102.592 52.7459C-83.091 29.6988 -45.6867 18 10.0441 18V16C-45.8251 16 -84.0207 27.7012 -104.119 51.4541L-102.592 52.7459ZM10.3441 192.9C27.8442 192.9 42.1236 189.985 53.1173 184.081L52.171 182.319C41.5647 188.015 27.6441 190.9 10.3441 190.9V192.9ZM53.123 184.078C64.2626 178.002 72.2289 170.266 76.9386 160.847L75.1497 159.953C70.6593 168.934 63.0257 176.398 52.1653 182.322L53.123 184.078ZM76.9424 160.84C81.6185 151.284 83.7491 140.919 83.3435 129.764L81.3448 129.836C81.7392 140.681 79.6698 150.716 75.1459 159.96L76.9424 160.84ZM83.3434 129.838C83.7498 119.273 81.6151 109.499 76.9304 100.537L75.1579 101.463C79.6732 110.101 81.7385 119.527 81.3449 129.762L83.3434 129.838ZM76.9304 100.537C72.2129 91.5121 64.2375 84.1799 53.0978 78.5088L52.1905 80.2911C63.0508 85.8201 70.6754 92.8879 75.1579 101.463L76.9304 100.537ZM53.1045 78.5122C42.1143 72.8136 27.8399 70 10.3441 70V72C27.6484 72 41.574 74.7863 52.1838 80.2877L53.1045 78.5122ZM10.3441 70C-6.95384 70 -21.1274 72.8144 -32.1162 78.5122L-31.1955 80.2877C-20.5843 74.7856 -6.75787 72 10.3441 72V70ZM-32.1162 78.5122C-43.0568 84.1851 -50.9274 91.5174 -55.6421 100.537L-53.8696 101.463C-49.3843 92.8826 -41.8549 85.8148 -31.1955 80.2877L-32.1162 78.5122ZM-55.6421 100.537C-60.3268 109.499 -62.4615 119.273 -62.0551 129.838L-60.0566 129.762C-60.4502 119.527 -58.3849 110.101 -53.8696 101.463L-55.6421 100.537ZM-62.0552 129.764C-62.4609 140.919 -60.3302 151.284 -55.6541 160.84L-53.8576 159.96C-58.3815 150.716 -60.4509 140.681 -60.0565 129.836L-62.0552 129.764ZM-55.6503 160.847C-50.9433 170.261 -43.0816 177.996 -32.1415 184.074L-31.1702 182.326C-41.8301 176.404 -49.3684 168.939 -53.8614 159.953L-55.6503 160.847ZM-32.129 184.081C-21.1367 189.984 -6.95816 192.9 10.3441 192.9V190.9C-6.75356 190.9 -20.575 188.016 -31.1827 182.319L-32.129 184.081ZM429.599 164.6L430.598 164.628L430.599 164.614V164.6H429.599ZM405.899 216.2L406.531 216.975L406.537 216.97L405.899 216.2ZM352.499 241.7L352.712 242.677L352.719 242.676L352.499 241.7ZM236.999 240.8L237.251 239.832L236.999 240.8ZM187.499 215.3L186.837 216.05L186.843 216.055L187.499 215.3ZM167.099 168.2V167.2H166.099V168.2H167.099ZM236.699 168.2H237.699V167.2H236.699V168.2ZM252.899 191.3L252.465 192.201L252.472 192.204L252.479 192.207L252.899 191.3ZM292.199 199.7L292.246 198.701L292.238 198.701L292.199 199.7ZM335.099 192.2L334.658 191.303L335.099 192.2ZM338.399 132.2L338.988 131.392L338.399 132.2ZM251.999 130.1L252.453 130.991L252.459 130.988L251.999 130.1ZM236.099 153.8L236.103 154.8L237.099 154.796V153.8H236.099ZM167.999 154.1H166.999V155.104L168.003 155.1L167.999 154.1ZM167.999 20V19H166.999V20H167.999ZM419.099 20H420.099V19H419.099V20ZM419.099 65V66H420.099V65H419.099ZM236.099 65V64H235.099V65H236.099ZM236.099 104.6H235.099V106.45L236.646 105.437L236.099 104.6ZM275.699 89.3L275.51 88.318L275.508 88.3185L275.699 89.3ZM379.199 94.4L378.823 95.3269L378.834 95.3309L379.199 94.4ZM416.099 121.7L415.292 122.291L415.299 122.3L416.099 121.7ZM429.618 163.3L352.818 161.8L352.779 163.8L429.579 165.3L429.618 163.3ZM352.779 163.8L429.579 165.3L429.618 163.3L352.818 161.8L352.779 163.8ZM428.599 164.572C428.006 186.118 420.214 203.034 405.261 215.43L406.537 216.97C421.984 204.166 429.991 186.682 430.598 164.628L428.599 164.572ZM405.267 215.425C390.195 227.721 372.538 236.156 352.279 240.724L352.719 242.676C373.26 238.044 391.203 229.479 406.531 216.975L405.267 215.425ZM352.286 240.723C332.152 245.109 312.323 247.3 292.799 247.3V249.3C312.474 249.3 332.446 247.091 352.712 242.677L352.286 240.723ZM292.799 247.3C274.892 247.3 256.377 244.813 237.251 239.832L236.747 241.768C256.021 246.787 274.706 249.3 292.799 249.3V247.3ZM237.251 239.832C218.187 234.868 201.829 226.436 188.155 214.545L186.843 216.055C200.769 228.164 217.41 236.732 236.747 241.768L237.251 239.832ZM188.16 214.55C174.792 202.754 168.099 187.336 168.099 168.2H166.099C166.099 187.864 173.006 203.846 186.837 216.05L188.16 214.55ZM167.099 169.2H236.699V167.2H167.099V169.2ZM235.699 168.2C235.699 173.487 237.102 178.167 239.93 182.199C242.752 186.223 246.952 189.547 252.465 192.201L253.333 190.399C248.045 187.853 244.146 184.727 241.568 181.051C238.996 177.383 237.699 173.113 237.699 168.2H235.699ZM252.479 192.207C263.428 197.277 276.665 200.096 292.16 200.699L292.238 198.701C276.932 198.104 263.97 195.323 253.319 190.393L252.479 192.207ZM292.151 200.699C309.074 201.505 323.552 198.99 335.54 193.097L334.658 191.303C323.046 197.01 308.924 199.495 292.246 198.701L292.151 200.699ZM335.54 193.097C341.583 190.127 346.164 186.132 349.228 181.095C352.291 176.06 353.799 170.047 353.799 163.1H351.799C351.799 169.753 350.357 175.39 347.519 180.055C344.683 184.718 340.414 188.473 334.658 191.303L335.54 193.097ZM353.799 163.1C353.799 149.233 348.886 138.609 338.988 131.392L337.81 133.008C347.111 139.791 351.799 149.766 351.799 163.1H353.799ZM338.988 131.392C329.128 124.202 313.464 120.7 292.199 120.7V122.7C313.333 122.7 328.47 126.198 337.81 133.008L338.988 131.392ZM292.199 120.7C276.087 120.7 262.518 123.519 251.539 129.212L252.459 130.988C263.079 125.481 276.31 122.7 292.199 122.7V120.7ZM251.545 129.209C246.136 131.964 242.017 135.339 239.25 139.358C236.477 143.387 235.099 148.012 235.099 153.2H237.099C237.099 148.388 238.371 144.163 240.898 140.492C243.431 136.811 247.262 133.636 252.453 130.991L251.545 129.209ZM235.099 153.2V153.8H237.099V153.2H235.099ZM236.094 152.8L167.994 153.1L168.003 155.1L236.103 154.8L236.094 152.8ZM168.999 154.1V20H166.999V154.1H168.999ZM167.999 21H419.099V19H167.999V21ZM418.099 20V65H420.099V20H418.099ZM419.099 64H236.099V66H419.099V64ZM235.099 65V104.6H237.099V65H235.099ZM236.646 105.437C247.519 98.3199 260.593 93.2615 275.89 90.2816L275.508 88.3185C260.005 91.3385 246.678 96.4801 235.551 103.763L236.646 105.437ZM275.888 90.282C291.421 87.2949 307.757 85.8 324.899 85.8V83.8C307.641 83.8 291.177 85.3051 275.51 88.318L275.888 90.282ZM324.899 85.8C345.195 85.8 363.164 88.9836 378.823 95.3268L379.574 93.4731C363.634 87.0163 345.403 83.8 324.899 83.8V85.8ZM378.834 95.3309C394.483 101.472 406.62 110.465 415.292 122.291L416.905 121.109C407.978 108.935 395.515 99.7283 379.564 93.4691L378.834 95.3309ZM415.299 122.3C424.157 134.111 428.599 148.095 428.599 164.3H430.599C430.599 147.705 426.041 133.289 416.899 121.1L415.299 122.3ZM428.599 164.3V164.6H430.599V164.3H428.599Z" fill="#2F1C90" mask="url(#path-2-outside-1_6_1194)"/>
</g>
</g>
<defs>
<filter id="filter0_d_6_1194" x="-139.956" y="10.4" width="583.555" height="251.9" filterUnits="userSpaceOnUse" color-interpolation-filters="sRGB">
<feFlood flood-opacity="0" result="BackgroundImageFix"/>
<feColorMatrix in="SourceAlpha" type="matrix" values="0 0 0 0 0 0 0 0 0 0 0 0 0 0 0 0 0 0 127 0" result="hardAlpha"/>
<feOffset dx="4" dy="4"/>
<feGaussianBlur stdDeviation="5"/>
<feComposite in2="hardAlpha" operator="out"/>
<feColorMatrix type="matrix" values="0 0 0 0 0 0 0 0 0 0 0 0 0 0 0 0 0 0 0.25 0"/>
<feBlend mode="normal" in2="BackgroundImageFix" result="effect1_dropShadow_6_1194"/>
<feBlend mode="normal" in="SourceGraphic" in2="effect1_dropShadow_6_1194" result="shape"/>
</filter>
</defs>
</svg>
