<svg width="280" height="250" viewBox="0 0 280 250" fill="none" xmlns="http://www.w3.org/2000/svg">
<mask id="mask0_6_1160" style="mask-type:alpha" maskUnits="userSpaceOnUse" x="0" y="0" width="280" height="250">
<rect width="280" height="250" rx="20" fill="#221463"/>
</mask>
<g mask="url(#mask0_6_1160)">
<g filter="url(#filter0_d_6_1160)">
<path d="M45 -52L99.5596 42.5H-9.5596L45 -52Z" fill="#2F1C90"/>
<path d="M-8.69357 42L45 -51L98.6936 42H-8.69357Z" stroke="#2F1C90"/>
</g>
<path d="M142.517 77.75L210.5 -40L278.483 77.75H142.517Z" stroke="#2F1C90"/>
<path d="M-23.483 180.75L44.5 63L112.483 180.75H-23.483Z" stroke="#2F1C90"/>
<path d="M82.517 304.75L150.5 187L218.483 304.75H82.517Z" stroke="#2F1C90"/>
<g filter="url(#filter1_d_6_1160)">
<path d="M259 132L297.105 198H220.895L259 132Z" fill="#2F1C90"/>
<path d="M221.761 197.5L259 133L296.239 197.5H221.761Z" stroke="#2F1C90"/>
</g>
</g>
<defs>
<filter id="filter0_d_6_1160" x="-15.5596" y="-58" width="129.119" height="114.5" filterUnits="userSpaceOnUse" color-interpolation-filters="sRGB">
<feFlood flood-opacity="0" result="BackgroundImageFix"/>
<feColorMatrix in="SourceAlpha" type="matrix" values="0 0 0 0 0 0 0 0 0 0 0 0 0 0 0 0 0 0 127 0" result="hardAlpha"/>
<feOffset dx="4" dy="4"/>
<feGaussianBlur stdDeviation="5"/>
<feComposite in2="hardAlpha" operator="out"/>
<feColorMatrix type="matrix" values="0 0 0 0 0 0 0 0 0 0 0 0 0 0 0 0 0 0 0.25 0"/>
<feBlend mode="normal" in2="BackgroundImageFix" result="effect1_dropShadow_6_1160"/>
<feBlend mode="normal" in="SourceGraphic" in2="effect1_dropShadow_6_1160" result="shape"/>
</filter>
<filter id="filter1_d_6_1160" x="220.895" y="132" width="84.2102" height="74" filterUnits="userSpaceOnUse" color-interpolation-filters="sRGB">
<feFlood flood-opacity="0" result="BackgroundImageFix"/>
<feColorMatrix in="SourceAlpha" type="matrix" values="0 0 0 0 0 0 0 0 0 0 0 0 0 0 0 0 0 0 127 0" result="hardAlpha"/>
<feOffset dx="4" dy="4"/>
<feGaussianBlur stdDeviation="2"/>
<feComposite in2="hardAlpha" operator="out"/>
<feColorMatrix type="matrix" values="0 0 0 0 0 0 0 0 0 0 0 0 0 0 0 0 0 0 0.25 0"/>
<feBlend mode="normal" in2="BackgroundImageFix" result="effect1_dropShadow_6_1160"/>
<feBlend mode="normal" in="SourceGraphic" in2="effect1_dropShadow_6_1160" result="shape"/>
</filter>
</defs>
</svg>
