<svg width="280" height="250" viewBox="0 0 280 250" fill="none" xmlns="http://www.w3.org/2000/svg">
<mask id="mask0_6_1190" style="mask-type:alpha" maskUnits="userSpaceOnUse" x="0" y="0" width="280" height="250">
<rect width="280" height="250" rx="20" fill="#221463"/>
</mask>
<g mask="url(#mask0_6_1190)">
<g filter="url(#filter0_d_6_1190)">
<mask id="path-2-outside-1_6_1190" maskUnits="userSpaceOnUse" x="-199" y="7" width="574" height="238" fill="black">
<rect fill="white" x="-199" y="7" width="574" height="238"/>
<path d="M-54.0223 12C38.7777 11.6 85.1777 49.3 85.1777 125.1C85.1777 154.7 75.7777 181.5 56.9778 205.5C38.3778 229.3 1.37775 241.2 -54.0223 241.2C-93.0223 241.2 -123.222 234.7 -144.622 221.7C-166.022 208.7 -180.322 193.5 -187.522 176.1C-194.522 158.7 -197.722 141.7 -197.122 125.1C-197.122 96.3 -187.222 70.3 -167.422 47.1C-147.622 23.7 -109.822 12 -54.0223 12ZM-53.7223 186.9C-36.3223 186.9 -22.2223 184 -11.4223 178.2C-0.422261 172.2 7.37774 164.6 11.9777 155.4C16.5777 146 18.6777 135.8 18.2777 124.8C18.6777 114.4 16.5777 104.8 11.9777 96C7.37774 87.2 -0.422261 80 -11.4223 74.4C-22.2223 68.8 -36.3223 66 -53.7223 66C-70.9223 66 -84.9223 68.8 -95.7223 74.4C-106.522 80 -114.222 87.2 -118.822 96C-123.422 104.8 -125.522 114.4 -125.122 124.8C-125.522 135.8 -123.422 146 -118.822 155.4C-114.222 164.6 -106.522 172.2 -95.7223 178.2C-84.9223 184 -70.9223 186.9 -53.7223 186.9Z"/>
<path d="M373.932 163.5C373.732 191.3 361.132 211.6 336.132 224.4C311.132 237.2 278.532 243.6 238.332 243.6C192.932 243.6 158.232 235.9 134.232 220.5C110.232 204.9 98.2324 181.5 98.2324 150.3H168.432C168.432 165.7 175.232 177 188.832 184.2C202.432 191.2 218.932 194.6 238.332 194.4C255.332 194.8 269.732 192.5 281.532 187.5C293.532 182.5 299.632 174.5 299.832 163.5C299.632 157.9 298.132 153.7 295.332 150.9C292.532 147.9 287.932 145.9 281.532 144.9C275.132 143.7 266.132 143.1 254.532 143.1H199.032V99.9H254.532C270.332 99.9 281.632 97.9 288.432 93.9C295.232 89.9 298.632 85 298.632 79.2C298.632 71.8 292.732 66.4 280.932 63C269.332 59.4 255.132 57.5 238.332 57.3C218.932 57.3 202.432 59.4 188.832 63.6C175.232 67.6 168.432 73.9 168.432 82.5H98.2324C98.2324 53.7 112.732 34.2 141.732 24C170.932 13.6 203.132 8.39999 238.332 8.39999C259.732 8.39999 279.632 9.79999 298.032 12.6C316.632 15.2 332.932 21.4 346.932 31.2C360.932 41 367.932 55.5 367.932 74.7C367.932 94.3 355.932 107.7 331.932 114.9C357.932 122.7 371.932 138.7 373.932 162.9V163.5Z"/>
</mask>
<path d="M-54.0223 12C38.7777 11.6 85.1777 49.3 85.1777 125.1C85.1777 154.7 75.7777 181.5 56.9778 205.5C38.3778 229.3 1.37775 241.2 -54.0223 241.2C-93.0223 241.2 -123.222 234.7 -144.622 221.7C-166.022 208.7 -180.322 193.5 -187.522 176.1C-194.522 158.7 -197.722 141.7 -197.122 125.1C-197.122 96.3 -187.222 70.3 -167.422 47.1C-147.622 23.7 -109.822 12 -54.0223 12ZM-53.7223 186.9C-36.3223 186.9 -22.2223 184 -11.4223 178.2C-0.422261 172.2 7.37774 164.6 11.9777 155.4C16.5777 146 18.6777 135.8 18.2777 124.8C18.6777 114.4 16.5777 104.8 11.9777 96C7.37774 87.2 -0.422261 80 -11.4223 74.4C-22.2223 68.8 -36.3223 66 -53.7223 66C-70.9223 66 -84.9223 68.8 -95.7223 74.4C-106.522 80 -114.222 87.2 -118.822 96C-123.422 104.8 -125.522 114.4 -125.122 124.8C-125.522 135.8 -123.422 146 -118.822 155.4C-114.222 164.6 -106.522 172.2 -95.7223 178.2C-84.9223 184 -70.9223 186.9 -53.7223 186.9Z" fill="#2F1C90" shape-rendering="crispEdges"/>
<path d="M-54.0223 12V13L-54.0179 13L-54.0223 12ZM56.9778 205.5L56.1905 204.883L56.1898 204.884L56.9778 205.5ZM-144.622 221.7L-145.141 222.555L-144.622 221.7ZM-187.522 176.1L-188.45 176.473L-188.446 176.482L-187.522 176.1ZM-197.122 125.1L-196.123 125.136L-196.122 125.118V125.1H-197.122ZM-167.422 47.1L-166.662 47.7492L-166.659 47.7459L-167.422 47.1ZM-11.4223 178.2L-10.9491 179.081L-10.9434 179.078L-11.4223 178.2ZM11.9777 155.4L12.8722 155.847L12.876 155.84L11.9777 155.4ZM18.2778 124.8L17.2785 124.762L17.2771 124.799L17.2784 124.836L18.2778 124.8ZM11.9777 96L12.864 95.5367L11.9777 96ZM-11.4223 74.4L-11.8826 75.2878L-11.8759 75.2911L-11.4223 74.4ZM-95.7223 74.4L-96.1826 73.5122L-95.7223 74.4ZM-118.822 96L-119.708 95.5367L-118.822 96ZM-125.122 124.8L-124.123 124.836L-124.122 124.799L-124.123 124.762L-125.122 124.8ZM-118.822 155.4L-119.721 155.84L-119.717 155.847L-118.822 155.4ZM-95.7223 178.2L-96.2079 179.074L-96.2017 179.078L-96.1954 179.081L-95.7223 178.2ZM-54.0179 13C-7.7281 12.8004 26.8021 22.1083 49.7471 40.7511C72.6529 59.362 84.1777 87.4133 84.1777 125.1H86.1777C86.1777 86.9866 74.5026 58.2879 51.0083 39.1989C27.5533 20.1417 -7.5164 10.7995 -54.0266 11L-54.0179 13ZM84.1777 125.1C84.1777 154.469 74.8571 181.054 56.1905 204.883L57.765 206.117C76.6984 181.946 86.1777 154.931 86.1777 125.1H84.1777ZM56.1898 204.884C37.8901 228.3 1.31155 240.2 -54.0223 240.2V242.2C1.44394 242.2 38.8654 230.3 57.7657 206.116L56.1898 204.884ZM-54.0223 240.2C-92.9327 240.2 -122.924 233.711 -144.103 220.845L-145.141 222.555C-123.521 235.689 -93.1118 242.2 -54.0223 242.2V240.2ZM-144.103 220.845C-165.381 207.92 -179.503 192.865 -186.598 175.718L-188.446 176.482C-181.142 194.135 -166.664 209.48 -145.141 222.555L-144.103 220.845ZM-186.595 175.727C-193.549 158.44 -196.717 141.579 -196.123 125.136L-198.122 125.064C-198.727 141.821 -195.496 158.96 -188.45 176.473L-186.595 175.727ZM-196.122 125.1C-196.122 96.5528 -186.317 70.7797 -166.662 47.7492L-168.183 46.4508C-188.128 69.8203 -198.122 96.0472 -198.122 125.1H-196.122ZM-166.659 47.7459C-147.157 24.6988 -109.753 13 -54.0223 13V11C-109.891 11 -148.087 22.7012 -168.186 46.4541L-166.659 47.7459ZM-53.7223 187.9C-36.2222 187.9 -21.9428 184.985 -10.9491 179.081L-11.8954 177.319C-22.5017 183.015 -36.4223 185.9 -53.7223 185.9V187.9ZM-10.9434 179.078C0.196152 173.002 8.16254 165.266 12.8722 155.847L11.0833 154.953C6.59294 163.934 -1.04068 171.398 -11.9011 177.322L-10.9434 179.078ZM12.876 155.84C17.5521 146.284 19.6827 135.919 19.2771 124.764L17.2784 124.836C17.6727 135.681 15.6034 145.716 11.0795 154.96L12.876 155.84ZM19.277 124.838C19.6834 114.273 17.5487 104.499 12.864 95.5367L11.0915 96.4632C15.6068 105.101 17.6721 114.527 17.2785 124.762L19.277 124.838ZM12.864 95.5367C8.14651 86.5121 0.171066 79.1799 -10.9686 73.5088L-11.8759 75.2911C-1.01559 80.8201 6.60896 87.8879 11.0915 96.4632L12.864 95.5367ZM-10.9619 73.5122C-21.9521 67.8136 -36.2265 65 -53.7223 65V67C-36.418 67 -22.4924 69.7863 -11.8826 75.2877L-10.9619 73.5122ZM-53.7223 65C-71.0202 65 -85.1938 67.8144 -96.1826 73.5122L-95.2619 75.2877C-84.6507 69.7856 -70.8243 67 -53.7223 67V65ZM-96.1826 73.5122C-107.123 79.1851 -114.994 86.5174 -119.708 95.5367L-117.936 96.4632C-113.451 87.8826 -105.921 80.8148 -95.2619 75.2877L-96.1826 73.5122ZM-119.708 95.5367C-124.393 104.499 -126.528 114.273 -126.122 124.838L-124.123 124.762C-124.517 114.527 -122.451 105.101 -117.936 96.4632L-119.708 95.5367ZM-126.122 124.764C-126.527 135.919 -124.397 146.284 -119.72 155.84L-117.924 154.96C-122.448 145.716 -124.517 135.681 -124.123 124.836L-126.122 124.764ZM-119.717 155.847C-115.01 165.261 -107.148 172.996 -96.2079 179.074L-95.2366 177.326C-105.896 171.404 -113.435 163.939 -117.928 154.953L-119.717 155.847ZM-96.1954 179.081C-85.2031 184.984 -71.0246 187.9 -53.7223 187.9V185.9C-70.82 185.9 -84.6414 183.016 -95.2491 177.319L-96.1954 179.081ZM373.932 163.5L374.932 163.507V163.5H373.932ZM336.132 224.4L335.677 223.51L336.132 224.4ZM134.232 220.5L133.687 221.338L133.692 221.342L134.232 220.5ZM98.2324 150.3V149.3H97.2324V150.3H98.2324ZM168.432 150.3H169.432V149.3H168.432V150.3ZM188.832 184.2L188.365 185.084L188.375 185.089L188.832 184.2ZM238.332 194.4L238.356 193.4L238.339 193.4L238.322 193.4L238.332 194.4ZM281.532 187.5L281.148 186.577L281.142 186.579L281.532 187.5ZM299.832 163.5L300.832 163.518L300.833 163.491L300.832 163.464L299.832 163.5ZM295.332 150.9L294.601 151.582L294.613 151.595L294.625 151.607L295.332 150.9ZM281.532 144.9L281.348 145.883L281.363 145.886L281.378 145.888L281.532 144.9ZM199.032 143.1H198.032V144.1H199.032V143.1ZM199.032 99.9V98.9H198.032V99.9H199.032ZM288.432 93.9L288.939 94.7619L288.432 93.9ZM280.932 63L280.636 63.955L280.646 63.9581L280.656 63.9609L280.932 63ZM238.332 57.3L238.344 56.3H238.332V57.3ZM188.832 63.6L189.115 64.5594L189.128 64.5555L188.832 63.6ZM168.432 82.5V83.5H169.432V82.5H168.432ZM98.2324 82.5H97.2324V83.5H98.2324V82.5ZM141.732 24L142.064 24.9433L142.068 24.942L141.732 24ZM298.032 12.6L297.882 13.5887L297.894 13.5904L298.032 12.6ZM346.932 31.2L347.506 30.3808L346.932 31.2ZM331.932 114.9L331.645 113.942L328.452 114.9L331.645 115.858L331.932 114.9ZM373.932 162.9H374.932V162.859L374.929 162.818L373.932 162.9ZM372.932 163.493C372.834 177.239 369.671 189.078 363.483 199.048C357.294 209.018 348.044 217.178 335.677 223.51L336.588 225.29C349.221 218.822 358.771 210.432 365.182 200.102C371.594 189.772 374.831 177.561 374.932 163.507L372.932 163.493ZM335.677 223.51C310.865 236.213 278.438 242.6 238.332 242.6V244.6C278.627 244.6 311.4 238.187 336.588 225.29L335.677 223.51ZM238.332 242.6C193.02 242.6 158.542 234.911 134.772 219.658L133.692 221.342C157.923 236.889 192.844 244.6 238.332 244.6V242.6ZM134.777 219.662C111.09 204.265 99.2324 181.198 99.2324 150.3H97.2324C97.2324 181.802 109.375 205.535 133.687 221.338L134.777 219.662ZM98.2324 151.3H168.432V149.3H98.2324V151.3ZM167.432 150.3C167.432 158.151 169.167 165.01 172.676 170.841C176.184 176.671 181.431 181.413 188.365 185.084L189.3 183.316C182.634 179.787 177.681 175.279 174.389 169.809C171.098 164.34 169.432 157.849 169.432 150.3H167.432ZM188.375 185.089C202.153 192.181 218.823 195.601 238.343 195.4L238.322 193.4C219.042 193.599 202.712 190.219 189.29 183.311L188.375 185.089ZM238.309 195.4C255.407 195.802 269.957 193.491 281.923 188.421L281.142 186.579C269.508 191.509 255.258 193.798 238.356 193.4L238.309 195.4ZM281.917 188.423C288.033 185.875 292.719 182.531 295.903 178.356C299.094 174.171 300.729 169.21 300.832 163.518L298.833 163.482C298.736 168.79 297.221 173.329 294.312 177.144C291.396 180.969 287.032 184.125 281.148 186.577L281.917 188.423ZM300.832 163.464C300.627 157.717 299.081 153.234 296.04 150.193L294.625 151.607C297.184 154.166 298.638 158.083 298.833 163.536L300.832 163.464ZM296.063 150.218C293.045 146.983 288.188 144.928 281.687 143.912L281.378 145.888C287.677 146.872 292.02 148.817 294.601 151.582L296.063 150.218ZM281.717 143.917C275.226 142.7 266.154 142.1 254.532 142.1V144.1C266.11 144.1 275.038 144.7 281.348 145.883L281.717 143.917ZM254.532 142.1H199.032V144.1H254.532V142.1ZM200.032 143.1V99.9H198.032V143.1H200.032ZM199.032 100.9H254.532V98.9H199.032V100.9ZM254.532 100.9C270.365 100.9 281.896 98.9052 288.939 94.7619L287.925 93.0381C281.369 96.8948 270.3 98.9 254.532 98.9V100.9ZM288.939 94.7619C295.921 90.6551 299.632 85.4778 299.632 79.2H297.632C297.632 84.5222 294.544 89.1449 287.925 93.0381L288.939 94.7619ZM299.632 79.2C299.632 75.195 298.021 71.7346 294.883 68.8623C291.774 66.0173 287.186 63.7611 281.209 62.0391L280.656 63.9609C286.479 65.6389 290.741 67.7827 293.532 70.3377C296.294 72.8654 297.632 75.805 297.632 79.2H299.632ZM281.229 62.0449C269.509 58.4077 255.207 56.5008 238.344 56.3001L238.321 58.2999C255.058 58.4992 269.156 60.3923 280.636 63.955L281.229 62.0449ZM238.332 56.3C218.866 56.3 202.26 58.4065 188.537 62.6445L189.128 64.5555C202.604 60.3935 218.999 58.3 238.332 58.3V56.3ZM188.55 62.6406C181.673 64.6633 176.41 67.2956 172.853 70.5914C169.266 73.9142 167.432 77.8982 167.432 82.5H169.432C169.432 78.5018 170.999 75.0358 174.212 72.0586C177.455 69.0544 182.392 66.5367 189.115 64.5594L188.55 62.6406ZM168.432 81.5H98.2324V83.5H168.432V81.5ZM99.2324 82.5C99.2324 68.2739 102.811 56.4189 109.91 46.8717C117.013 37.3192 127.702 29.9947 142.064 24.9433L141.401 23.0566C126.762 28.2052 115.702 35.7308 108.305 45.6783C100.904 55.6311 97.2324 67.9261 97.2324 82.5H99.2324ZM142.068 24.942C171.147 14.5852 203.231 9.39999 238.332 9.39999V7.39999C203.033 7.39999 170.718 12.6148 141.397 23.058L142.068 24.942ZM238.332 9.39999C259.689 9.39999 279.539 10.7972 297.882 13.5886L298.183 11.6114C279.726 8.80277 259.776 7.39999 238.332 7.39999V9.39999ZM297.894 13.5904C316.353 16.1707 332.501 22.3185 346.359 32.0192L347.506 30.3808C333.364 20.4814 316.912 14.2293 298.171 11.6096L297.894 13.5904ZM346.359 32.0192C360.055 41.6068 366.932 55.7795 366.932 74.7H368.932C368.932 55.2205 361.809 40.3932 347.506 30.3808L346.359 32.0192ZM366.932 74.7C366.932 84.2777 364.008 92.2833 358.188 98.7829C352.35 105.302 343.535 110.375 331.645 113.942L332.22 115.858C344.33 112.225 353.515 106.998 359.677 100.117C365.857 93.2167 368.932 84.7223 368.932 74.7H366.932ZM331.645 115.858C344.514 119.719 354.334 125.584 361.18 133.408C368.019 141.225 371.951 151.064 372.936 162.982L374.929 162.818C373.914 150.536 369.845 140.275 362.685 132.091C355.531 123.916 345.351 117.881 332.22 113.942L331.645 115.858ZM372.932 162.9V163.5H374.932V162.9H372.932Z" fill="#2F1C90" mask="url(#path-2-outside-1_6_1190)"/>
</g>
</g>
<defs>
<filter id="filter0_d_6_1190" x="-204.022" y="2.40002" width="591.955" height="255.2" filterUnits="userSpaceOnUse" color-interpolation-filters="sRGB">
<feFlood flood-opacity="0" result="BackgroundImageFix"/>
<feColorMatrix in="SourceAlpha" type="matrix" values="0 0 0 0 0 0 0 0 0 0 0 0 0 0 0 0 0 0 127 0" result="hardAlpha"/>
<feOffset dx="4" dy="4"/>
<feGaussianBlur stdDeviation="5"/>
<feComposite in2="hardAlpha" operator="out"/>
<feColorMatrix type="matrix" values="0 0 0 0 0 0 0 0 0 0 0 0 0 0 0 0 0 0 0.25 0"/>
<feBlend mode="normal" in2="BackgroundImageFix" result="effect1_dropShadow_6_1190"/>
<feBlend mode="normal" in="SourceGraphic" in2="effect1_dropShadow_6_1190" result="shape"/>
</filter>
</defs>
</svg>
